<svg  viewBox="-34 0 479 479.93111" xmlns="http://www.w3.org/2000/svg" id="av"><path d="m272.386719 47.929688v-16c-33.863281 0-56.625 25.722656-56.625 64h16c0-22.144532 10.640625-48 40.625-48zm0 0"/><path d="m154.730469 181.585938 11.3125-11.3125 24.003906 24-11.316406 11.316406zm0 0"/><path d="m168.386719 479.929688v-213.445313l106.640625-92.105469c47.652344-1.042968 85.636718-40.15625 85.289062-87.816406-.351562-47.664062-38.90625-86.214844-86.570312-86.55859375-47.660156-.34765625-86.769532 37.64062475-87.808594 85.29687475l-134.351562 155.574219-28.074219 28.070312 24.96875 24.96875c-14.097657 6.308594-23.425781 20.042969-24.09375 35.472657v150.542969h16v-150.542969c0-12.800781 12.335937-20.175781 20-23.511719l30.957031 30.953125 28.097656-28.097656.945313-.800781v172zm-16-16h-16v-169.804688l16-13.816406zm120.726562-448c39.363281 0 71.273438 31.910156 71.273438 71.273437s-31.910157 71.273437-71.273438 71.273437-71.273437-31.910156-71.273437-71.273437c.050781-39.34375 31.929687-71.222656 71.273437-71.273437zm-84.894531 91.203124c7.621094 32.199219 32.765625 57.34375 64.964844 64.964844l-138.789063 119.882813-46.058593-46.058594zm-96.847656 207.070313-45.257813-45.257813 11.3125-11.308593 45.253907 45.253906zm0 0"/><path d="m368.386719 281.402344v-68.574219l-88 29.335937v55.199219c-11.023438 3.894531-17.632813 15.164063-15.65625 26.6875 1.976562 11.519531 11.964843 19.941407 23.65625 19.941407 11.6875 0 21.675781-8.421876 23.652343-19.941407 1.976563-11.523437-4.632812-22.792969-15.652343-26.6875v-11.671875l56-18.664062v14.398437c-11.023438 3.898438-17.632813 15.167969-15.65625 26.6875 1.976562 11.519531 11.964843 19.941407 23.65625 19.941407 11.6875 0 21.675781-8.421876 23.652343-19.941407 1.976563-11.519531-4.632812-22.789062-15.652343-26.6875zm-80 46.527344c-4.417969 0-8-3.582032-8-8 0-4.417969 3.582031-8 8-8s8 3.582031 8 8c0 4.417968-3.582031 8-8 8zm8-59.09375v-15.136719l56-18.664063v15.136719zm64 43.09375c-4.417969 0-8-3.582032-8-8 0-4.417969 3.582031-8 8-8s8 3.582031 8 8c0 4.417968-3.582031 8-8 8zm0 0"/><path d="m48.386719 143.929688c-.042969-10.132813-6.445313-19.148438-16-22.527344v-36.199219l56-24v-49.40625l-72 30.863281v78.742188c-11.476563 4.089844-18.058594 16.136718-15.296875 28.003906 2.761718 11.867188 13.988281 19.769531 26.089844 18.367188 12.105468-1.398438 21.226562-11.660157 21.207031-23.84375zm-16-90.726563 40-17.136719v14.59375l-40 17.136719zm-16 90.726563c0-4.417969 3.582031-8 8-8s8 3.582031 8 8c0 4.417968-3.582031 8-8 8s-8-3.582032-8-8zm0 0"/><path d="m384.386719 10.988281v32l-11.578125 5.78125 7.152344 14.320313 20.425781-10.214844v-32l11.574219-5.785156-7.152344-14.320313zm0 0"/></svg>