<?xml version="1.0" encoding="iso-8859-1"?>
<!-- Generator: Adobe Illustrator 17.1.0, SVG Export Plug-In . SVG Version: 6.00 Build 0)  -->
<svg version="1.1" xmlns="http://www.w3.org/2000/svg" xmlns:xlink="http://www.w3.org/1999/xlink" x="0px" y="0px"
	 viewBox="0 0 444.72 444.72" style="enable-background:new 0 0 444.72 444.72;" xml:space="preserve" id="dance">
<path d="M374.626,284.482l-133.999-58.049v-95.192h64.478c15.819,0,28.689-12.87,28.689-28.689c0-17.364-6.034-34.326-16.99-47.76
	c-2.618-3.211-7.344-3.69-10.553-1.072c-3.21,2.618-3.69,7.343-1.072,10.553c8.78,10.765,13.615,24.359,13.615,38.279
	c0,7.549-6.141,13.689-13.689,13.689h-86.227v-14.713c14.056-7.696,20.058-22.096,21.296-30.637
	c0.051-0.356,0.077-0.716,0.077-1.076V44.3c0-0.813-0.139-1.612-0.391-2.369c0.248-0.741,0.389-1.531,0.391-2.355
	c0.002-0.697-0.078-17.229-11.608-28.796C221.514,3.627,211.844,0,199.905,0c-31.327,0-40.191,25.739-40.502,39.35
	c-0.02,0.897,0.126,1.757,0.397,2.56c-0.258,0.766-0.399,1.57-0.399,2.391v25.516c0,0.36,0.026,0.72,0.078,1.076
	c1.26,8.692,7.444,23.46,22.041,31.047v14.303H95.294c-8.116,0-14.719-6.603-14.719-14.719c0-14.68,5.1-29.017,14.358-40.369
	c2.618-3.21,2.139-7.935-1.071-10.552c-3.212-2.619-7.934-2.138-10.552,1.071c-11.437,14.021-17.735,31.726-17.735,49.85
	c0,16.387,13.332,29.719,29.719,29.719h63.734v100.117c0,0.346,0.031,0.684,0.077,1.017c-0.06,0.431-0.089,0.87-0.071,1.319
	l8,203.819c0.158,4.024,3.467,7.206,7.494,7.206h17.898c3.89,0,7.135-2.975,7.472-6.85l14.174-162.826l4.357-2.697l150.925,48.448
	c2.281,0.733,4.776,0.332,6.711-1.081c1.936-1.411,3.081-3.663,3.081-6.06v-22.29C379.145,288.375,377.37,285.671,374.626,284.482z
	 M225.628,223.858h-51.6v-65.311c7.035,5.757,16.021,9.215,25.799,9.215c9.779,0,18.766-3.457,25.801-9.215V223.858z M199.905,15
	c10.591,0,17.752,3.775,21.894,11.541c0.111,0.208,0.209,0.417,0.313,0.626c-7.158-3.749-14.561-5.645-22.144-5.645
	c-8.527,0-16.028,2.427-22.102,5.488C181.143,20.931,187.508,15,199.905,15z M174.401,47.446
	c3.915-3.529,13.555-10.924,25.567-10.924c8.524,0,17.019,3.713,25.284,11.043v21.633c-0.593,3.19-4.817,20.994-25.363,22.457
	h-0.121c-20.382-1.449-24.695-18.886-25.367-22.47V47.446z M189.02,131.241c4.143,0,7.5-3.357,7.5-7.5v-17.326
	c0.82,0.094,1.656,0.169,2.509,0.225c0.162,0.011,0.323,0.016,0.485,0.016h0.629c0.162,0,0.323-0.005,0.485-0.016
	c1.115-0.072,2.191-0.19,3.251-0.328v17.43c0,4.143,3.357,7.5,7.5,7.5h13.887c-2.045,12.195-12.671,21.521-25.439,21.521
	c-12.768,0-23.393-9.325-25.438-21.521H189.02z M364.145,303.37l-144.429-46.363c-2.09-0.674-4.371-0.394-6.24,0.764l-10.498,6.5
	c-2.012,1.246-3.318,3.369-3.523,5.727L185.55,429.72h-3.811l-7.491-190.861h57.325l132.572,57.431V303.37z"/>
<g>
</svg>
