<svg xmlns="http://www.w3.org/2000/svg" xmlns:xlink="http://www.w3.org/1999/xlink" viewBox="0 0 1424.16 387.36"><defs><clipPath id="a9b03b54-73f4-4c92-9f39-9432732406ff"><path d="M82.22,118.36h48.4a85.06,85.06,0,0,1,30.6,5.2,66.09,66.09,0,0,1,23.2,14.7,63.86,63.86,0,0,1,14.7,22.7,79.84,79.84,0,0,1,5.1,29,80.39,80.39,0,0,1-5.1,29.2,62.93,62.93,0,0,1-14.7,22.6,66.74,66.74,0,0,1-23.2,14.6,85.06,85.06,0,0,1-30.6,5.2H82.22ZM129.42,236a60.25,60.25,0,0,0,20.8-3.3,40.63,40.63,0,0,0,15-9.3,38.1,38.1,0,0,0,9-14.5,61,61,0,0,0,0-37.8,38.1,38.1,0,0,0-9-14.5,40.63,40.63,0,0,0-15-9.3,60.25,60.25,0,0,0-20.8-3.3h-20.2v92ZM253,144v33.2h57.4v25.6H253V236h63.8v25.6H226V118.36h90.8V144Zm76.6-25.6h29.2l29.6,86.2,5.2,18.4h1.6l5.6-18.4,30.8-86.2h29.2l-52.2,143.2h-28.4Zm175,25.6v33.2H562v25.6h-57.4V236h63.8v25.6h-90.8V118.36h90.8V144Zm88.6-25.6h27V236h60.6v25.6h-87.6Zm171.6,146.4a75.57,75.57,0,0,1-29.71-5.8,72.37,72.37,0,0,1-39.4-39.7,78.28,78.28,0,0,1,0-58.6,72.37,72.37,0,0,1,39.4-39.7,79,79,0,0,1,59.41,0,72.4,72.4,0,0,1,39.39,39.7,78.16,78.16,0,0,1,0,58.6A72.4,72.4,0,0,1,794.52,259,75.56,75.56,0,0,1,764.82,264.76Zm0-25.6a48.48,48.48,0,0,0,18.7-3.6,47,47,0,0,0,15.19-10,45.29,45.29,0,0,0,10.2-15.5,56.45,56.45,0,0,0,0-40.2,45.29,45.29,0,0,0-10.2-15.5,47,47,0,0,0-15.19-10,50.39,50.39,0,0,0-37.41,0,47.21,47.21,0,0,0-15.2,10,45.58,45.58,0,0,0-10.2,15.5,56.59,56.59,0,0,0,0,40.2,45.58,45.58,0,0,0,10.2,15.5,47.21,47.21,0,0,0,15.2,10A48.46,48.46,0,0,0,764.82,239.16Zm96.59,22.4V118.36h50.4a54.49,54.49,0,0,1,19.1,3.3,47.16,47.16,0,0,1,15.5,9.3,44.33,44.33,0,0,1,0,65.4,47.16,47.16,0,0,1-15.5,9.3,54.49,54.49,0,0,1-19.1,3.3h-23.4v52.6Zm50.8-78.2q10.6,0,16-6a20,20,0,0,0,5.4-13.8,21.56,21.56,0,0,0-1.3-7.4,17,17,0,0,0-4-6.3,19.67,19.67,0,0,0-6.7-4.3,25.17,25.17,0,0,0-9.4-1.6h-23.8v39.4Zm94.6-39.4v33.2h57.4v25.6h-57.4V236h63.8v25.6h-90.8V118.36h90.8V144Zm88.6-25.6h52.2a53.93,53.93,0,0,1,19.6,3.4,45.27,45.27,0,0,1,15.1,9.4,41,41,0,0,1,9.7,14.3,47.23,47.23,0,0,1,3.4,18.1,37.6,37.6,0,0,1-2.4,13.5,40.45,40.45,0,0,1-6.6,11.4,48.67,48.67,0,0,1-9.8,9,49.75,49.75,0,0,1-11.8,6.1l-.2,1.4,38.4,55v1.6h-31l-37-53.8h-12.6v53.8h-27Zm52,64.6q9.19,0,15.1-5.6a18.75,18.75,0,0,0,5.9-14.2,21.56,21.56,0,0,0-1.3-7.4,18.72,18.72,0,0,0-3.9-6.4,19.07,19.07,0,0,0-6.5-4.5,22.14,22.14,0,0,0-8.9-1.7h-25.4V183Zm115.8,81.8a59.26,59.26,0,0,1-17.6-2.6,50.62,50.62,0,0,1-15.4-7.8,54,54,0,0,1-12.2-12.7,61.35,61.35,0,0,1-8.2-17.5l25.4-10a38.67,38.67,0,0,0,9.8,17.9q7,7.09,18.4,7.1a29.83,29.83,0,0,0,8.1-1.1,24,24,0,0,0,7-3.2,15.62,15.62,0,0,0,4.9-5.3,14.83,14.83,0,0,0,1.8-7.4,17.82,17.82,0,0,0-1.4-7.2,17,17,0,0,0-4.7-6,41.53,41.53,0,0,0-8.6-5.4,131.15,131.15,0,0,0-13.1-5.4l-8.8-3.2a66.93,66.93,0,0,1-11.7-5.4,51.46,51.46,0,0,1-10.7-8.2,40.35,40.35,0,0,1-7.9-11.3,33.66,33.66,0,0,1-3.1-14.7,37.68,37.68,0,0,1,3.3-15.7,38.32,38.32,0,0,1,9.4-12.8,44.07,44.07,0,0,1,14.6-8.6,60.42,60.42,0,0,1,37.6-.2,46,46,0,0,1,13.4,7.4,41.2,41.2,0,0,1,8.9,9.9,47.72,47.72,0,0,1,5,10.2l-23.8,10a25.35,25.35,0,0,0-7.3-10.8q-5.3-4.8-14.5-4.8-8.8,0-14.6,4.1a12.54,12.54,0,0,0-5.8,10.7q0,6.41,5.6,10.9t17.8,8.7l9,3a103.1,103.1,0,0,1,15.7,6.9,49.26,49.26,0,0,1,12.2,9.3,37.83,37.83,0,0,1,7.8,12.3,43.43,43.43,0,0,1,2.7,15.9q0,11.2-4.5,19.3a41.39,41.39,0,0,1-11.5,13.3,49.87,49.87,0,0,1-15.8,7.8A60.67,60.67,0,0,1,1263.21,264.76Z" fill="none"/></clipPath><linearGradient id="a5266894-2177-429e-a6bb-60879fb30339" x1="1982.64" y1="687.34" x2="-173.04" y2="-159.38" gradientUnits="userSpaceOnUse"><stop offset="0" stop-color="#2de88a"/><stop offset="0.13" stop-color="#2de38a"/><stop offset="0.28" stop-color="#2dd68b"/><stop offset="0.44" stop-color="#2dbf8c"/><stop offset="0.6" stop-color="#2d9f8d"/><stop offset="0.77" stop-color="#2e768f"/><stop offset="0.94" stop-color="#2e4591"/><stop offset="1" stop-color="#2e3192"/></linearGradient><clipPath id="fd3e9768-aeb1-4653-9822-97a81127bc16"><circle cx="764.82" cy="189.96" r="62.28" fill="none"/></clipPath><linearGradient id="b5878769-5f04-4919-b76e-8768da1ac3ea" x1="1980.27" y1="690.66" x2="-175.41" y2="-156.06" xlink:href="#a5266894-2177-429e-a6bb-60879fb30339"/></defs><title>dev</title><g id="bdc689c3-fbf9-44af-b40f-3152a5d5503e" data-name="Layer 2"><g id="a50ca056-8c3e-47b5-9bff-79ed2834684c" data-name="Layer 1"><rect width="1424.16" height="387.36" fill="#1c1b30"/><g clip-path="url(#a9b03b54-73f4-4c92-9f39-9432732406ff)"><rect x="46.47" y="43.34" width="1302.97" height="278.79" fill="url(#a5266894-2177-429e-a6bb-60879fb30339)"/></g><g clip-path="url(#fd3e9768-aeb1-4653-9822-97a81127bc16)"><rect x="44.1" y="46.66" width="1302.97" height="278.79" fill="url(#b5878769-5f04-4919-b76e-8768da1ac3ea)"/></g></g></g></svg>