<?xml version="1.0" encoding="iso-8859-1"?>
<!-- Generator: Adobe Illustrator 19.0.0, SVG Export Plug-In . SVG Version: 6.00 Build 0)  -->
<svg version="1.1" id="drama" xmlns="http://www.w3.org/2000/svg" xmlns:xlink="http://www.w3.org/1999/xlink" x="0px" y="0px"
	 viewBox="0 0 449.595 449.595" style="enable-background:new 0 0 449.595 449.595;" xml:space="preserve">
<g>
	<g>
		<path d="M116.879,203.243c-34.88-10.4-61.76,14.72-62.88,16c-3.748,2.34-4.89,7.275-2.55,11.023s7.275,4.889,11.023,2.55
			c0.917-0.573,1.709-1.325,2.327-2.212c12.829-11.53,30.493-16.043,47.28-12.08c4.2,1.37,8.716-0.924,10.087-5.124
			c0.026-0.078,0.05-0.157,0.073-0.236C123.483,208.945,121.089,204.514,116.879,203.243z"/>
	</g>
</g>
<g>
	<g>
		<path d="M215.599,178.363v-0.16c-34.88-10.32-61.76,14.72-62.88,16c-3.203,3.049-3.329,8.117-0.28,11.32
			c3.049,3.203,8.117,3.329,11.32,0.28c12.782-11.618,30.492-16.143,47.28-12.08c4.242,1.259,8.701-1.158,9.96-5.4
			S219.841,179.622,215.599,178.363z"/>
	</g>
</g>
<g>
	<g>
		<path d="M213.119,267.723c-0.588-1.96-1.905-3.621-3.68-4.64c-1.829-1.091-4.017-1.408-6.08-0.88l-98.56,24.96
			c-4.306,0.991-6.993,5.285-6.002,9.59c0.001,0.003,0.002,0.007,0.002,0.01c5.52,21.76,26.72,36.4,52.64,36.4
			c5.695-0.016,11.365-0.742,16.88-2.16C199.839,323.003,219.919,294.683,213.119,267.723z M164.399,315.723L164.399,315.723
			c-4.211,1.062-8.537,1.599-12.88,1.6c-13.48,0.586-26.318-5.787-34-16.88l80.88-20.48
			C197.679,295.643,183.999,310.763,164.399,315.723z"/>
	</g>
</g>
<g>
	<g>
		<path d="M443.812,127.818c-0.018-0.005-0.035-0.01-0.053-0.015l-213.12-58.8c-4.26-1.173-8.664,1.329-9.837,5.589
			c-0.001,0.004-0.002,0.007-0.003,0.011l-3.52,12.56l-211.28,53.52c-4.251,1.099-6.822,5.419-5.76,9.68l35.68,141.04
			c15.944,63.371,80.242,101.819,143.613,85.875c20.437-5.142,39.131-15.649,54.147-30.435
			c55.526,34.62,128.604,17.673,163.224-37.853c6.023-9.659,10.622-20.136,13.656-31.107l38.72-140.16
			C450.505,133.478,448.057,129.043,443.812,127.818z M175.999,361.643c-54.807,13.949-110.544-19.172-124.494-73.979
			c-0.022-0.087-0.044-0.174-0.066-0.261l-33.76-133.2l199.12-50.32l33.76,133.28C264.322,292.123,230.949,347.839,175.999,361.643z
			 M395.199,273.643c-15.107,54.591-71.608,86.599-126.198,71.492c-8.59-2.377-16.833-5.864-24.522-10.372
			c7.788-10.055,13.918-21.29,18.16-33.28l66.16,18.32c0.717,0.098,1.443,0.098,2.16,0c3.696,0.137,7.004-2.278,8-5.84
			c7.36-26.72-12.08-55.52-43.44-64c-8.769-2.437-17.942-3.063-26.96-1.84c-0.559-5.038-1.441-10.035-2.64-14.96l-13.44-52.4
			c8.167,3.722,17.025,5.684,26,5.76c5.406,0.004,10.788-0.722,16-2.16c4.308-1.215,6.815-5.692,5.6-10
			c-1.215-4.308-5.692-6.815-10-5.6c-15.134,3.566-31.066-0.099-43.12-9.92l-15.76-62.08l2.88-10.48l197.68,54.64L395.199,273.643z
			 M267.199,286.043c1.48-7.189,2.284-14.501,2.4-21.84c7.281-1.191,14.734-0.781,21.84,1.2c19.52,5.36,32.88,20.72,33.28,36.48
			L267.199,286.043z"/>
	</g>
</g>
<g>
	<g>
		<path d="M398.399,201.643c-1.171-4.264-5.576-6.771-9.84-5.6c-16.886,3.705-34.509-1.211-47.04-13.12
			c-3.137-3.115-8.205-3.097-11.32,0.04s-3.097,8.205,0.04,11.32c12.679,11.855,29.214,18.73,46.56,19.36
			c5.406,0.006,10.789-0.721,16-2.16C397.063,210.312,399.57,205.906,398.399,201.643z"/>
	</g>
</g>
<g>
</g>
<g>
</g>
<g>
</g>
<g>
</g>
<g>
</g>
<g>
</g>
<g>
</g>
<g>
</g>
<g>
</g>
<g>
</g>
<g>
</g>
<g>
</g>
<g>
</g>
<g>
</g>
<g>
</g>
</svg>
