<svg  viewBox="0 -48 480.74734 480" id="informals" xmlns="http://www.w3.org/2000/svg"><path d="m373.019531 128.375c-31.171875-88.164062-121.324219-141.050781-213.488281-125.234375-92.164062 15.8125-159.53125 95.722656-159.53125 189.234375 0 93.507812 67.367188 173.421875 159.53125 189.234375s182.316406-37.074219 213.488281-125.234375h107.726563l-32-40h7.351562c13.257813 0 24-10.746094 24-24 0-13.257812-10.742187-24-24-24h-7.351562l32-40zm55.238281 40h-99.511718l19.203125-24h99.503906zm-238.503906 40.964844c4.488282 4.519531 10.601563 7.050781 16.96875 7.035156h26.769532c-11.675782 20.113281-36.105469 28.945312-57.945313 20.945312-21.835937-7.996093-34.785156-30.515624-30.707031-53.414062s24.003906-39.566406 47.257812-39.53125c17.125-.027344 32.945313 9.136719 41.449219 24h-26.824219c-6.367187-.019531-12.480468 2.511719-16.96875 7.03125l-16.964844 16.96875zm61.472656-40.964844c-12.105468-29.773438-44.4375-45.925781-75.515624-37.726562-31.074219 8.199218-51.230469 38.195312-47.078126 70.066406 4.152344 31.871094 31.328126 55.699218 63.464844 55.660156 25.980469-.160156 49.304688-15.945312 59.113282-40h17.152343c-11.847656 37.648438-49.394531 61.015625-88.40625 55.023438-39.011719-5.992188-67.808593-39.554688-67.808593-79.023438s28.796874-73.03125 67.808593-79.027344c39.011719-5.992187 76.558594 17.378906 88.40625 55.027344zm33.746094 0c-12.132812-46.742188-57.125-77.171875-105.019531-71.035156-47.898437 6.140625-83.761719 46.933594-83.714844 95.222656.050781 48.289062 35.992188 89.011719 83.902344 95.054688 47.910156 6.042968 92.839844-24.480469 104.878906-71.242188h16.457031c-12.253906 55.855469-64.617187 93.507812-121.46875 87.347656-56.851562-6.164062-99.929687-54.164062-99.929687-111.347656s43.078125-105.1875 99.929687-111.347656c56.851563-6.164063 109.214844 31.492187 121.46875 87.347656zm-268.671875 32h16.207031c1.796876 36.832031 16.332032 71.894531 41.121094 99.199219l-11.441406 11.4375c-27.8125-30.347657-44.058594-69.515625-45.886719-110.636719zm68.636719 110.46875c27.292969 24.78125 62.34375 39.316406 99.160156 41.121094v16.207031c-41.109375-1.839844-80.261718-18.082031-110.597656-45.886719zm115.160156 41.210938c36.882813-1.714844 72.023438-16.191407 99.410156-40.953126l11.328126 11.320313c-30.402344 27.75-69.609376 43.90625-110.738282 45.632813zm-8-15.679688c-73.199218.03125-134.777344-54.855469-143.125-127.574219-8.351562-72.722656 39.183594-140.136719 110.488282-156.695312 71.300781-16.558594 143.679687 23.011719 168.230468 91.972656l-12.078125 15.09375c-16.660156-62.019531-76.695312-102.097656-140.367187-93.699219-63.667969 8.402344-111.253906 62.679688-111.253906 126.902344 0 64.21875 47.585937 118.496094 111.253906 126.898438 63.671875 8.402343 123.707031-31.675782 140.367187-93.699219l12.070313 15.085937c-20.214844 57.511719-74.625 95.921875-135.585938 95.714844zm107.355469-262.664062c-27.375-24.757813-62.488281-39.253907-99.355469-41.015626v-16c41.117188 1.753907 80.304688 17.921876 110.699219 45.671876zm-115.355469-40.929688c-36.816406 1.808594-71.867187 16.339844-99.160156 41.121094l-11.4375-11.441406c30.335938-27.804688 69.488281-44.046876 110.597656-45.886719zm171.90625 95.59375h-15.746094l-.984374 1.230469c-6.953126-16.34375-16.589844-31.414063-28.511719-44.582031l11.335937-11.335938c14.578125 15.984375 26.070313 34.523438 33.90625 54.6875zm-293.816406-54.601562 11.441406 11.441406c-24.78125 27.292968-39.316406 62.339844-41.121094 99.160156h-16.207031c1.839844-41.113281 18.082031-80.261719 45.886719-110.601562zm259.945312 237.320312-11.335937-11.335938c11.90625-13.1875 21.523437-28.277343 28.453125-44.640624l1.007812 1.257812h15.785157c-7.835938 20.171875-19.332031 38.722656-33.910157 54.71875zm125.320313-70.71875h-99.515625l-19.199219-24h99.519531zm8.644531-56c4.421875 0 8 3.582031 8 8s-3.578125 8-8 8h-249.375c-2.121094 0-4.15625-.84375-5.65625-2.34375l-5.65625-5.65625 5.65625-5.65625c1.5-1.5 3.535156-2.34375 5.65625-2.34375zm0 0"/></svg>