<svg xmlns="http://www.w3.org/2000/svg" xmlns:xlink="http://www.w3.org/1999/xlink" viewBox="0 0 106.78 112.62" id="kite">
  <defs>
    <linearGradient id="8b543dd4-4a6e-4a0a-95b7-f1a82e84fe0e" x1="472.21" y1="59.1" x2="477.1" y2="143.98" gradientTransform="matrix(0.98, 0.22, 0.22, -0.98, -433.12, 53.62)" gradientUnits="userSpaceOnUse">
      <stop offset="0" stop-color="#ff0936"/>
      <stop offset="1" stop-color="#ff7763"/>
    </linearGradient>
    <linearGradient id="652cf4b1-cd4e-4ead-870e-cc511b6c135e" x1="475.08" y1="67.45" x2="474.84" y2="44.46" gradientTransform="matrix(0.98, 0.22, 0.22, -0.98, -433.12, 53.62)" gradientUnits="userSpaceOnUse">
      <stop offset="0" stop-color="#ffde00"/>
      <stop offset="1" stop-color="#ffae13"/>
    </linearGradient>
    <linearGradient id="83184768-477a-498e-9dd6-50fb68c36ce7" x1="476.61" y1="113.85" x2="474.9" y2="164.97" xlink:href="#652cf4b1-cd4e-4ead-870e-cc511b6c135e"/>
  </defs>
  <title>kite</title>
  <g id="c6766022-b46e-49c3-91be-272feba6ecdb" data-name="Layer 2">
    <g id="16fe61fb-bf22-430c-9e22-ef4240359967" data-name="Layer 1">
      <g>
        <polygon points="106.64 65.1 48.06 102.44 45.66 103.96 41.54 106.59 38.91 102.46 37.39 100.07 0.06 41.49 9.93 35.2 65.16 0 76.04 17.07 103.07 59.49 106.64 65.1" fill="url(#8b543dd4-4a6e-4a0a-95b7-f1a82e84fe0e)"/>
        <path d="M0,41.43s.39-.26,1.14-.7S3,39.65,4.46,38.94s3.26-1.54,5.38-2.35a73.38,73.38,0,0,1,7.25-2.37,78.17,78.17,0,0,1,8.83-1.88,81.55,81.55,0,0,1,10-.91,85.79,85.79,0,0,1,10.79.35,96.1,96.1,0,0,1,11,1.72l2.71.65c.9.22,1.81.49,2.71.73,1.8.51,3.56,1.07,5.3,1.68a85.45,85.45,0,0,1,9.94,4.21,80.78,80.78,0,0,1,8.73,5.05,75.55,75.55,0,0,1,7.22,5.42,72.32,72.32,0,0,1,5.61,5.19c1.58,1.63,2.86,3.14,3.88,4.41s1.75,2.32,2.24,3a11.86,11.86,0,0,1,.73,1.12l-.34.23s-.26-.38-.79-1.05-1.34-1.65-2.41-2.85-2.43-2.61-4-4.15a71.09,71.09,0,0,0-5.69-4.9,85.16,85.16,0,0,0-7.26-5.09,89.71,89.71,0,0,0-8.66-4.76,92.1,92.1,0,0,0-9.78-4c-1.7-.59-3.44-1.12-5.18-1.61-.88-.23-1.74-.48-2.64-.7l-2.68-.63a94,94,0,0,0-10.76-1.74A92.47,92.47,0,0,0,36,33.23a90.61,90.61,0,0,0-9.86.67c-3.12.4-6,.94-8.73,1.56s-5.1,1.33-7.23,2-4,1.41-5.43,2S2.17,40.63,1.4,41s-1.17.61-1.17.61Z" fill="#fff"/>
        <path d="M65.29.08l-1,4.59-2.57,12.1c-1.08,5-2.32,10.84-3.69,17.09L53.78,53.43,49.41,73C48,79.23,46.67,85,45.54,90l-2.78,12-1.07,4.57-.28-.06,1-4.59L45,89.81c1.08-5,2.32-10.84,3.69-17.09L53,53.14l4.37-19.56c1.39-6.24,2.74-12.06,3.87-17L64,4.58,65.06,0Z" fill="#fff"/>
        <path d="M25.93,104.22,45.8,87.43l10.91,23.65C44.11,114.29,36.62,112.71,25.93,104.22Z" fill="url(#652cf4b1-cd4e-4ead-870e-cc511b6c135e)"/>
        <polygon points="103.07 59.49 63.9 5.7 9.93 35.2 65.16 0 76.04 17.07 103.07 59.49" fill="url(#83184768-477a-498e-9dd6-50fb68c36ce7)"/>
      </g>
    </g>
  </g>
</svg>
