<svg xmlns="http://www.w3.org/2000/svg" viewBox="0 0 1050 230.74"><title>logo</title><g id="b81c4028-d8ed-4583-9d35-04dc34dab331" data-name="Layer 2"><g id="af1d4c6d-6b24-47ff-b470-d89a6c073778" data-name="Layer 1"><path d="M104.31,103.1a55.6,55.6,0,0,1-19.53,15.24,59,59,0,0,1-25.17,5.23A58.94,58.94,0,0,1,36.4,119,56.79,56.79,0,0,1,5.53,88.17,58.51,58.51,0,0,1,1,65.12,58.51,58.51,0,0,1,5.53,42.07,56.7,56.7,0,0,1,36.4,11.2,59,59,0,0,1,59.61,6.66a56.41,56.41,0,0,1,23.68,4.69A55.16,55.16,0,0,1,101.5,25L86.65,39.33a39.6,39.6,0,0,0-11.49-9.22,32.43,32.43,0,0,0-15.39-3.44A39.42,39.42,0,0,0,45.08,29.4a35.65,35.65,0,0,0-12,7.74,36.51,36.51,0,0,0-8,12.11,40.84,40.84,0,0,0-3,15.87,40.75,40.75,0,0,0,3,15.86,36.45,36.45,0,0,0,8,12.12,35.47,35.47,0,0,0,12,7.73,39.23,39.23,0,0,0,14.69,2.74,35.18,35.18,0,0,0,16.64-3.83,40.83,40.83,0,0,0,12.9-10.86Z" fill="#f4eae4" stroke="#f4eae4" stroke-linecap="round" stroke-linejoin="round" stroke-width="2"/><path d="M248.11,11.66h24.53l45,75h1.25l-1.25-21.57V11.66H338.6V123.57H316.41L268.89,44.33h-1.25l1.25,21.57v57.67H248.11Z" fill="#f4eae4" stroke="#f4eae4" stroke-linecap="round" stroke-linejoin="round" stroke-width="2"/><path d="M361.11,11.66h71v20H382.21v27.2h44.86v20H382.21v44.7h-21.1Z" fill="#f4eae4" stroke="#f4eae4" stroke-linecap="round" stroke-linejoin="round" stroke-width="2"/><path d="M448.32,11.66h21.1v91.91h47.36v20H448.32Z" fill="#f4eae4" stroke="#f4eae4" stroke-linecap="round" stroke-linejoin="round" stroke-width="2"/><path d="M526.69,1V123.57H1049V1ZM628.61,73.45a57.18,57.18,0,0,1-3.05,19.14,42.07,42.07,0,0,1-8.75,14.85,39.79,39.79,0,0,1-13.75,9.62A45.61,45.61,0,0,1,585,120.49a48.08,48.08,0,0,1-17.89-3.2,37,37,0,0,1-13.68-9.3,42.87,42.87,0,0,1-8.75-14.77,57.93,57.93,0,0,1-3.13-19.77V6.08h21.1V74.7A35.65,35.65,0,0,0,564.06,85a23.12,23.12,0,0,0,4.22,8.13,19.49,19.49,0,0,0,7,5.39,22.76,22.76,0,0,0,9.69,2,23.09,23.09,0,0,0,9.85-2,19.41,19.41,0,0,0,7-5.39A23,23,0,0,0,606.1,85a35.65,35.65,0,0,0,1.41-10.31V6.08h21.1Zm91-47.36H669.72V52h44.85V72H669.72V98h49.86v20h-71V6.08h71ZM829.45,118H807.26L759.74,38.75h-1.25l1.25,21.57V118H739V6.08h24.54l45,75h1.25l-1.25-21.57V6.08h20.94Zm99.25-2.73a62.45,62.45,0,0,1-48.37.7,56.7,56.7,0,0,1-30.87-30.87A58.34,58.34,0,0,1,844.92,62,58.42,58.42,0,0,1,849.46,39,56.7,56.7,0,0,1,880.33,8.11a58.91,58.91,0,0,1,23.21-4.53,56.44,56.44,0,0,1,23.68,4.69,55.12,55.12,0,0,1,18.2,13.6L930.58,36.25A39.87,39.87,0,0,0,919.09,27a32.5,32.5,0,0,0-15.4-3.44A39.42,39.42,0,0,0,889,26.32a35.75,35.75,0,0,0-12,7.74,36.66,36.66,0,0,0-8,12.11A40.84,40.84,0,0,0,866,62a40.79,40.79,0,0,0,3,15.86A36.71,36.71,0,0,0,877,90a35.57,35.57,0,0,0,12,7.73,39.23,39.23,0,0,0,14.69,2.74,35.22,35.22,0,0,0,16.65-3.83,40.94,40.94,0,0,0,12.89-10.87l15,14.23A55.73,55.73,0,0,1,928.7,115.26Zm107.38-89.17H986.22V52h44.86V72H986.22V98h49.86v20h-71V6.08h71Z" fill="#f4eae4" stroke="#f4eae4" stroke-linecap="round" stroke-linejoin="round" stroke-width="2"/><path d="M172.61,123.57A59,59,0,0,1,149.4,119a56.53,56.53,0,0,1-30.79-31,59,59,0,0,1-4.45-22.9,59,59,0,0,1,4.45-22.9,56.53,56.53,0,0,1,30.79-31,61.62,61.62,0,0,1,46.43,0,56.53,56.53,0,0,1,30.79,31,59,59,0,0,1,4.45,22.9A59,59,0,0,1,226.62,88a56.53,56.53,0,0,1-30.79,31A59,59,0,0,1,172.61,123.57Zm0-20a37.78,37.78,0,0,0,14.62-2.82,36.68,36.68,0,0,0,11.88-7.81,35.63,35.63,0,0,0,8-12.11A41.3,41.3,0,0,0,210,65.12a41.3,41.3,0,0,0-2.89-15.71,35.63,35.63,0,0,0-8-12.11,36.86,36.86,0,0,0-11.88-7.82,39.41,39.41,0,0,0-29.23,0,36.86,36.86,0,0,0-11.88,7.82,35.63,35.63,0,0,0-8,12.11,41.3,41.3,0,0,0-2.89,15.71,41.3,41.3,0,0,0,2.89,15.71,35.63,35.63,0,0,0,8,12.11A36.68,36.68,0,0,0,158,100.75,37.73,37.73,0,0,0,172.61,103.57Z" fill="#f4eae4" stroke="#f4eae4" stroke-linecap="round" stroke-linejoin="round" stroke-width="2"/><ellipse cx="172.61" cy="65.12" rx="41.73" ry="41.5" fill="#f4eae4" stroke="#f4eae4" stroke-linecap="round" stroke-linejoin="round" stroke-width="2"/><path d="M131,187.14a27.24,27.24,0,0,1,27.06-27.4A26.82,26.82,0,0,1,179,169.8a1.44,1.44,0,0,1-1.08,2.38,1.44,1.44,0,0,1-1.09-.5,23.92,23.92,0,0,0-18.75-9.1,24.56,24.56,0,0,0,0,49.11,23.92,23.92,0,0,0,18.75-9.1,1.43,1.43,0,0,1,2.52.93,1.42,1.42,0,0,1-.35.95,26.82,26.82,0,0,1-20.92,10.06A27.23,27.23,0,0,1,131,187.14Z" fill="#fff" stroke="#fff" stroke-miterlimit="10" stroke-width="0.75"/><path d="M228.65,177.36v35a1.37,1.37,0,0,1-2.74,0V203.9A19,19,0,0,1,209,214.53c-10.49,0-19-8.8-19-19.66s8.53-19.66,19-19.66a19,19,0,0,1,16.91,10.64v-8.49a1.37,1.37,0,0,1,2.74,0Zm-2.71,17.51a16.61,16.61,0,1,0-16.61,17A16.83,16.83,0,0,0,225.94,194.87Z" fill="#fff" stroke="#fff" stroke-miterlimit="10" stroke-width="0.75"/><path d="M259.86,176.61a1.38,1.38,0,0,1-1.25,1.38,15.92,15.92,0,0,0-14.94,16.17v18.29a1.37,1.37,0,0,1-2.74,0V177.29a1.37,1.37,0,1,1,2.74,0v7.58a17.77,17.77,0,0,1,14.77-9.65A1.39,1.39,0,0,1,259.86,176.61Z" fill="#fff" stroke="#fff" stroke-miterlimit="10" stroke-width="0.75"/><path d="M308.51,193.34v19a1.37,1.37,0,0,1-2.74,0V193.69a15.44,15.44,0,1,0-30.87,0v18.69a1.37,1.37,0,1,1-2.74,0v-35a1.37,1.37,0,1,1,2.74,0v7.69a17.76,17.76,0,0,1,15.82-9.84A18,18,0,0,1,308.51,193.34Z" fill="#fff" stroke="#fff" stroke-miterlimit="10" stroke-width="0.75"/><path d="M320.41,168a1.92,1.92,0,1,1,1.92,1.93A1.92,1.92,0,0,1,320.41,168Zm.55,44.35v-35a1.37,1.37,0,0,1,2.74,0v35a1.37,1.37,0,1,1-2.74,0Z" fill="#fff" stroke="#fff" stroke-miterlimit="10" stroke-width="0.75"/><path d="M351.92,213.27l-17.36-35.43a1.36,1.36,0,0,1,.62-1.83,1.38,1.38,0,0,1,1.84.63l16.13,33.05,16.14-33.05a1.37,1.37,0,1,1,2.46,1.2l-17.35,35.4a1.3,1.3,0,0,1-.94.73A1.32,1.32,0,0,1,351.92,213.27Z" fill="#fff" stroke="#fff" stroke-miterlimit="10" stroke-width="0.75"/><path d="M417.27,177.36v35a1.37,1.37,0,0,1-2.74,0V203.9a19,19,0,0,1-16.9,10.63c-10.5,0-19-8.8-19-19.66s8.53-19.66,19-19.66a19,19,0,0,1,16.9,10.64v-8.49a1.37,1.37,0,0,1,2.74,0Zm-2.7,17.51a16.62,16.62,0,1,0-16.62,17A16.83,16.83,0,0,0,414.57,194.87Z" fill="#fff" stroke="#fff" stroke-miterlimit="10" stroke-width="0.75"/><path d="M429.55,212.38v-52a1.37,1.37,0,1,1,2.74,0v52a1.37,1.37,0,0,1-2.74,0Z" fill="#fff" stroke="#fff" stroke-miterlimit="10" stroke-width="0.75"/><path d="M478.7,194.86a19.36,19.36,0,1,1,19.36,19.67A19.52,19.52,0,0,1,478.7,194.86Zm36,0a16.62,16.62,0,1,0-16.61,17A16.83,16.83,0,0,0,514.67,194.87Z" fill="#fff" stroke="#fff" stroke-miterlimit="10" stroke-width="0.75"/><path d="M552,161.72a1.33,1.33,0,0,1-1.75,1.25c-4.06-1.46-8.66-1.95-11.64-.07-2.22,1.4-3.43,4-3.43,7.38v6.16h12.12a1.33,1.33,0,1,1,0,2.65H535.22v33.29a1.37,1.37,0,0,1-2.74,0V179.09h-5.25a1.33,1.33,0,1,1,0-2.65h5.25v-6.32c0-4.41,1.67-7.65,4.67-9.49,3.61-2.22,8.76-2.09,14-.15A1.32,1.32,0,0,1,552,161.72Z" fill="#fff" stroke="#fff" stroke-miterlimit="10" stroke-width="0.75"/><path d="M642.87,162V212.3a1.45,1.45,0,1,1-2.89,0V189.38h-40.2v22.91a1.45,1.45,0,0,1-2.89,0V162a1.45,1.45,0,1,1,2.89,0v24.52H640V162a1.45,1.45,0,1,1,2.89,0Z" fill="#fff" stroke="#fff" stroke-miterlimit="10" stroke-width="0.75"/><path d="M691.56,194.87c0,.32,0,.64,0,1a1.35,1.35,0,0,1-1.36,1.32H657.29c1,8.49,7.64,14.72,15.92,14.72a29.23,29.23,0,0,0,15.72-5.36,1.17,1.17,0,0,1,.61-.17,1.33,1.33,0,0,1,1.33,1.33,1.29,1.29,0,0,1-.71,1.15,30.83,30.83,0,0,1-16.95,5.71c-10.54,0-18.79-8.54-18.79-19.66,0-10.86,8.32-19.66,18.57-19.66S691.56,184,691.56,194.87Zm-34.4-.33h31.65c-.17-9.24-7.2-16.66-15.82-16.66S657.33,185.3,657.16,194.54Z" fill="#fff" stroke="#fff" stroke-miterlimit="10" stroke-width="0.75"/><path d="M722,176.61a1.38,1.38,0,0,1-1.25,1.38,15.92,15.92,0,0,0-14.94,16.17v18.29a1.37,1.37,0,1,1-2.74,0V177.29a1.37,1.37,0,1,1,2.74,0v7.58a17.77,17.77,0,0,1,14.77-9.65A1.39,1.39,0,0,1,722,176.61Z" fill="#fff" stroke="#fff" stroke-miterlimit="10" stroke-width="0.75"/><path d="M733.89,168a1.92,1.92,0,1,1,1.92,1.93A1.92,1.92,0,0,1,733.89,168Zm.55,44.35v-35a1.37,1.37,0,1,1,2.74,0v35a1.37,1.37,0,1,1-2.74,0Z" fill="#fff" stroke="#fff" stroke-miterlimit="10" stroke-width="0.75"/><path d="M772.36,212.38a1.33,1.33,0,0,1-1,1.28c-4.64,1.34-9,1.22-12.21-.76-3-1.86-4.68-5.08-4.68-9.49V179.07h-5.94a1.33,1.33,0,0,1,0-2.66h5.94v-9.3a1.37,1.37,0,0,1,2.74,0v9.3h11.33a1.33,1.33,0,1,1,0,2.66H757.25v24.18c0,3.42,1.21,6,3.43,7.38,2.58,1.62,6.37,1.48,10,.46A1.33,1.33,0,0,1,772.36,212.38Z" fill="#fff" stroke="#fff" stroke-miterlimit="10" stroke-width="0.75"/><path d="M820.19,177.36v35a1.37,1.37,0,0,1-2.74,0V203.9a19,19,0,0,1-16.9,10.63c-10.5,0-19-8.8-19-19.66s8.53-19.66,19-19.66a19,19,0,0,1,16.9,10.64v-8.49a1.37,1.37,0,0,1,2.74,0Zm-2.7,17.51a16.62,16.62,0,1,0-16.62,17A16.83,16.83,0,0,0,817.49,194.87Z" fill="#fff" stroke="#fff" stroke-miterlimit="10" stroke-width="0.75"/><path d="M869,175.92a1.37,1.37,0,0,1,1.37,1.37v35.33c0,11.44-7.11,17.72-18.09,17.74a35,35,0,0,1-17.45-5.06,1.37,1.37,0,0,1,1.27-2.42,31.65,31.65,0,0,0,16.12,4.74c9.64,0,15.41-5.2,15.41-15V203.9a19,19,0,0,1-16.9,10.63c-10.49,0-19-8.8-19-19.66s8.54-19.66,19-19.66a19,19,0,0,1,16.9,10.64v-8.56a1.37,1.37,0,0,1,1.37-1.37Zm-1.33,19a16.62,16.62,0,1,0-16.62,17A16.83,16.83,0,0,0,867.66,194.87Z" fill="#fff" stroke="#fff" stroke-miterlimit="10" stroke-width="0.75"/><path d="M919,194.87c0,.32,0,.64,0,1a1.36,1.36,0,0,1-1.37,1.32H884.73c1,8.49,7.65,14.72,15.92,14.72a29.21,29.21,0,0,0,15.72-5.36,1.17,1.17,0,0,1,.61-.17,1.32,1.32,0,0,1,1.33,1.33,1.29,1.29,0,0,1-.71,1.15,30.8,30.8,0,0,1-17,5.71c-10.54,0-18.79-8.54-18.79-19.66,0-10.86,8.33-19.66,18.57-19.66S919,184,919,194.87Zm-34.4-.33h31.66c-.17-9.24-7.21-16.66-15.83-16.66S884.77,185.3,884.6,194.54Z" fill="#fff" stroke="#fff" stroke-miterlimit="10" stroke-width="0.75"/><circle cx="497.67" cy="195.02" r="19.98" fill="#fff" stroke="#fff" stroke-miterlimit="10" stroke-width="0.75"/></g></g></svg>