<svg xmlns="http://www.w3.org/2000/svg" width="1309.92" height="1402.649" viewBox="0 0 1309.92 1402.649" id="mahal"><g transform="translate(-3443.399 280)"><g transform="translate(3314.636 -1202.214)"><path d="M260.383,1521.368c-7.693-8.368-17.231-12.453-29.157-12.5-8.77-.036-16,3.217-22.119,9.94-27.615,30.361-20.85,116.136-20.1,124.664l91.735.385C285.429,1583.3,278.4,1540.943,260.383,1521.368Z" transform="translate(28.118 295.671)" fill="#f0647b"/><path d="M281.638,1507.128c3.99-58.137-3.14-98.843-20.7-117.92-7.693-8.369-17.231-12.457-29.157-12.509-8.764-.036-16,3.219-22.119,9.932-24.879,27.343-21.837,99.858-20.453,120.109Z" transform="translate(28.4 229.06)" fill="#f0647b"/><path d="M187.7,1522.521l103.4.435a5.923,5.923,0,0,0,5.924-5.455c5.171-65.335-2.7-109.869-23.383-132.35-9.91-10.77-22.634-16.255-37.824-16.32-12.14-.049-22.548,4.6-30.928,13.814-32.434,35.643-23.449,130.52-23.056,134.548A5.914,5.914,0,0,0,187.7,1522.521ZM213.643,1390.6c6.121-6.714,13.356-9.969,22.119-9.932,11.925.051,21.464,4.139,29.157,12.509,17.564,19.077,24.694,59.783,20.7,117.92l-92.433-.387C191.807,1490.457,188.764,1417.942,213.643,1390.6Z" transform="translate(24.415 225.093)" fill="#fff"/><g transform="translate(131.952 922.214)"><path d="M577.467,1403.421c-9.2-.039-16.436,3.107-22.118,9.616-17.705,20.287-14.656,65.6-13.264,79.315a187.361,187.361,0,0,0,36.627,4.071h.006a105.134,105.134,0,0,0,28.988-3.488c2.065-13,7.961-59.357-8.926-79.948C593.53,1406.584,586.554,1403.459,577.467,1403.421Z" transform="translate(74.192 -679.687)" fill="#f0647b"/><path d="M589.6,1546.978c-5.284-5.744-11.889-8.562-20.2-8.6a19.283,19.283,0,0,0-15.052,6.749c-16.4,18.076-15.553,67.3-13.786,85.68l62.963.263C606.8,1589.574,601.995,1560.478,589.6,1546.978Z" transform="translate(73.53 -611.667)" fill="#f497a4"/><path d="M655.259,1652.5c.081-5.151.477-12.729,1.078-24.154,1.719-32.589,5.745-108.9.311-119.87-4.956-7.895-67.712-16.237-112.953-10.209-24.022,3.22-26.31,8.618-26.328,8.676-5.3,17.394-2.14,109.572-.418,144.978l24.443.1c-.967-11.391-4.736-69.74,16.906-93.589a30.907,30.907,0,0,1,23.867-10.626c11.624.049,21.337,4.229,28.863,12.435,14.787,16.1,20.5,47.137,17.064,92.142Z" transform="translate(60.818 -632.926)" fill="#f0647b"/><path d="M850.634,1521.473c-6.064-6.765-13.271-10.08-22.035-10.116-11.925-.05-21.5,3.954-29.262,12.259-18.18,19.421-25.563,61.721-21.387,122.309l91.735.384C870.508,1637.783,877.971,1552.027,850.634,1521.473Z" transform="translate(193.057 -625.287)" fill="#f0647b"/><path d="M888.523,1764.291c2.778-35.768,3.082-248.528,2.891-410.585a5.835,5.835,0,0,1-.442-2.145,5.925,5.925,0,0,1,.436-2.221c-.029-23.668-.068-46.182-.111-66.851-50.31-1.528-415.524-12.195-487.892-2.819-1.4,169.391.316,463.064.507,482.591l37.523.156,1.742-415.788c.026-6.162.069-16.473,179.165-15.723,228.919.959,228.85,17.284,228.824,23.423l-1.716,409.8Z" transform="translate(4.584 -743.98)" fill="#f497a4"/><path d="M748.36,1472.374c-.809-53.789-64.452-122.292-134.824-122.586-73.38-.307-127.7,63.156-135.949,122.131-8.708,62.252-7.512,237.48-7.38,253.5l57.238.241c-.91-18.91-5.732-126.414.952-148.372,1.1-3.617,4.455-14.631,46.953-18.119,35.354-2.88,105.767.686,114.268,17.845,6.288,12.7,4.016,66.726.9,125.745-.492,9.3-.961,18.218-1.143,23.579l57.951.242C747.636,1693.2,749.145,1524.421,748.36,1472.374Zm-93.89,53.3a5.926,5.926,0,0,1-3.9,4.47c-10.23,3.483-22.395,5.21-36.17,5.153h-.006a194.383,194.383,0,0,1-43.472-5.348,5.914,5.914,0,0,1-4.368-4.9c-.375-2.624-8.845-64.725,15.6-92.749,7.965-9.137,18.424-13.739,31.1-13.686s22.9,4.735,30.429,13.921C666.835,1460.78,654.985,1523.037,654.47,1525.671Z" transform="translate(38.463 -706.719)" fill="#f497a4"/><path d="M951.3,1521.9c-6.064-6.765-13.27-10.08-22.035-10.116-11.924-.051-21.5,3.954-29.26,12.257-18.186,19.432-25.565,61.723-21.382,122.31l91.736.385C971.183,1638.142,978.626,1552.436,951.3,1521.9Z" transform="translate(243.793 -625.075)" fill="#f0647b"/><path d="M820.716,1741.829l1.708-407.777c-27.012-14.205-348.565-19.7-384.317-6.685l-1.73,412.852,38.972.163c-.159-18.707-1.394-191.546,7.493-255.091,10.25-73.26,76.52-132.627,147.726-132.328,77.877.325,145.712,74.085,146.616,134.239.784,52.156-.723,220.9-1.036,254.44Z" transform="translate(21.478 -721.73)" fill="#f0647b"/><path d="M983.7,1266.98c-3.617-3.274-28.863.135-33.3,4.071-1.972,4.887-1.158,44.521,1.053,80.071,13.516.218,24.39.49,31.888.829Z" transform="translate(279.983 -749.115)" fill="#f0647b"/><path d="M989.768,1361.156c16.461-34.5,18.779-71.837,6.03-103.035-7.753-18.992-20.429-33.046-33.909-37.6-28.925-9.788-59.506-51.224-72.708-70.853-13.139,30.467-41.34,47.564-66.54,62.857-27.093,16.433-50.5,30.637-54.589,57.187-7.319,47.409,8.9,80.321,14.59,90.106C819.506,1354.421,963.344,1360.062,989.768,1361.156Z" transform="translate(187.701 -807.578)" fill="#f497a4"/><path d="M733.666,1737.142l54.193.227c-4.337-64.359,3.906-108.262,24.583-130.355,9.993-10.689,22.769-16.07,37.953-16.005,12.14.051,22.507,4.79,30.811,14.076,30.012,33.544,23.467,118.426,22.122,132.767l35.935.15c-4.341-64.344,3.9-108.247,24.578-130.353,9.994-10.689,22.769-16.07,37.955-16.005,12.139.05,22.507,4.79,30.809,14.076,30.012,33.544,23.471,118.426,22.128,132.767l35.9.151c2.384-47.949,1.516-361.271,1.376-407.175-41.516-1.908-200.9-1.75-293.693-1.478a5.709,5.709,0,0,1-4.8.016c-26.714.081-47.209.168-56.969.215C736.74,1490.628,736.424,1698.345,733.666,1737.142Zm231.01-328.269c9.994-10.686,22.769-16.064,37.953-16,12.14.051,22.509,4.787,30.811,14.071,32.134,35.915,22.361,130.713,21.934,134.739a5.916,5.916,0,0,1-5.912,5.279l-103.4-.433a5.924,5.924,0,0,1-5.879-5.5C935.557,1475.66,943.794,1431.2,964.676,1408.874Zm-151.406-.635c10-10.686,22.767-16.064,37.959-16,12.139.051,22.507,4.787,30.811,14.071,32.134,35.916,22.356,130.713,21.927,134.739a5.913,5.913,0,0,1-5.912,5.279l-103.4-.433a5.924,5.924,0,0,1-5.879-5.5C784.155,1475.014,792.4,1430.548,813.27,1408.239Z" transform="translate(171.31 -716.78)" fill="#f497a4"/><path d="M870.637,1509.586c1.552-20.239,5.2-92.726-19.445-120.278-6.066-6.763-13.271-10.078-22.035-10.116-11.925-.049-21.5,3.958-29.262,12.264-17.722,18.929-25.192,59.573-21.691,117.742Z" transform="translate(193.333 -691.898)" fill="#f0647b"/><path d="M980.963,1335.411l.152-36.1c-61.3-2.57-171.191-5.723-201.949-1.6l-.158,37.6C836.45,1335.14,917.368,1335.028,980.963,1335.411Z" transform="translate(194.163 -733.97)" fill="#f0647b"/><path d="M971.307,1510.006c1.554-20.238,5.2-92.724-19.451-120.276-6.064-6.765-13.271-10.078-22.034-10.116-11.927-.05-21.5,3.958-29.262,12.263-17.728,18.943-25.2,59.583-21.686,117.742Z" transform="translate(244.069 -691.685)" fill="#f0647b"/><path d="M679.573,994.633c-40.939-33.709-70.834-61.843-81.839-72.419-18.093,20.5-46.839,39.677-79.737,61.61q-5.056,3.373-10.259,6.852C543.87,983.491,606.211,977.075,679.573,994.633Z" transform="translate(57.443 -922.214)" fill="#f0647b"/><path d="M405.638,1205.471c-1.146,14.551-1.888,51.1-2.346,99.342,78.569-9.193,434.6,1.278,487.76,2.906-.114-50.486-.247-88.125-.293-101.094C841.918,1199.517,558.365,1202.642,405.638,1205.471Z" transform="translate(4.803 -781.058)" fill="#f0647b"/><path d="M903.288,1311.788c65.013-102.129,38.635-195.712-78.564-278.211-22.146-15.589-43.035-31.437-62.166-46.634a5.8,5.8,0,0,1-3.44.045c-114.546-33.836-208.657-4.35-217.791-1.308-44.667,31.4-92.129,70.046-125.638,122.964-63.063,99.577-12.819,186.214-2.781,201.653C455.554,1309.513,844.163,1302.661,903.288,1311.788Z" transform="translate(-4.695 -897.688)" fill="#f497a4"/><path d="M135.886,1606.01c-3.528,120.881-5.876,286.288-1.727,347.485l1297.875,29.391c3.751-156.3,4.529-302.2,1.951-347.479Z" transform="matrix(1, -0.017, 0.017, 1, -163.15, -577.632)" fill="#f0647b"/><path d="M427.284,1358.335c5.768-9.791,22.25-42.733,15.36-89.978-3.871-26.583-27.153-40.982-54.108-57.641-25.076-15.5-53.133-32.838-66.01-63.413-13.366,19.516-44.293,60.7-73.3,70.241-13.516,4.44-26.309,18.388-34.222,37.316-13.01,31.089-11.006,68.448,5.165,103.08C246.6,1357.064,390.447,1352.615,427.284,1358.335Z" transform="translate(-94.391 -808.77)" fill="#f497a4"/><path d="M418.816,1333.7l.158-37.608c-30.736-4.381-140.631-2.136-201.949-.095l-.152,36.1C280.467,1332.247,361.379,1333.044,418.816,1333.7Z" transform="translate(-89.152 -735.05)" fill="#f0647b"/><path d="M216.143,1602.472c8.38-9.215,18.786-13.868,30.927-13.817,15.186.063,27.914,5.551,37.818,16.323,20.49,22.267,28.365,66.236,23.489,130.556l35.932.15c-1.223-14.353-7.054-99.287,23.24-132.577,8.379-9.215,18.788-13.868,30.927-13.817,15.186.063,27.916,5.551,37.818,16.323,20.5,22.28,28.365,66.25,23.485,130.556l56.51.236c-.311-22.473-1.572-239.648-.969-406.935-9.392-.122-30.307-.388-57.788-.7a5.745,5.745,0,0,1-4.793-.052c-92.794-1.051-252.169-2.542-293.692-.988-.523,45.9-4.017,359.2-2.036,407.171l35.9.151C191.683,1720.7,185.849,1635.763,216.143,1602.472ZM368.38,1404.331c8.38-9.213,18.789-13.864,30.928-13.813,15.186.063,27.916,5.55,37.818,16.319,20.694,22.5,28.559,67.028,23.384,132.352a5.923,5.923,0,0,1-5.926,5.454l-103.4-.433a5.912,5.912,0,0,1-5.867-5.329C344.925,1534.853,335.947,1439.976,368.38,1404.331Zm-151.406-.633c8.38-9.215,18.788-13.864,30.928-13.814,15.19.065,27.914,5.55,37.824,16.32,20.681,22.482,28.553,67.015,23.383,132.35a5.923,5.923,0,0,1-5.924,5.455l-103.4-.435a5.913,5.913,0,0,1-5.869-5.328C193.525,1534.218,184.541,1439.341,216.974,1403.7Z" transform="translate(-119.627 -718.174)" fill="#f497a4"/><path d="M190.117,1347.88c2.512-35.529,3.625-75.2,1.095-80.892-3.784-3.115-29.02-6.712-32.885-2.88l-.116,84.333C165.71,1348.169,176.591,1347.985,190.117,1347.88Z" transform="translate(-118.718 -750.736)" fill="#f0647b"/><path d="M382.3,1507.55c4-58.128-3.128-98.829-20.7-117.919-7.694-8.37-17.233-12.459-29.158-12.509-8.764-.036-16,3.217-22.118,9.931-24.881,27.344-21.843,99.858-20.459,120.109Z" transform="translate(-52.816 -692.942)" fill="#f0647b"/><path d="M361.053,1521.79c-7.694-8.368-17.233-12.453-29.158-12.5-8.764-.036-16,3.217-22.118,9.931-27.583,30.312-20.859,116.075-20.1,124.672l91.735.385C386.1,1583.725,379.077,1541.374,361.053,1521.79Z" transform="translate(-53.096 -626.331)" fill="#f0647b"/><path d="M581.493,1395.548c-12.671-.053-23.13,4.55-31.1,13.686-24.443,28.024-15.972,90.124-15.6,92.749a5.914,5.914,0,0,0,4.368,4.9,194.38,194.38,0,0,0,43.472,5.348h.006c13.775.057,25.94-1.669,36.17-5.153a5.926,5.926,0,0,0,3.9-4.47c.516-2.633,12.366-64.891-10.794-93.138C604.394,1400.283,594.158,1395.6,581.493,1395.548Zm30.19,101.357a105.129,105.129,0,0,1-28.988,3.488h-.006a187.362,187.362,0,0,1-36.627-4.071c-1.393-13.72-4.441-59.027,13.264-79.315,5.682-6.509,12.915-9.656,22.118-9.616,9.087.038,16.063,3.163,21.313,9.568C619.643,1437.549,613.748,1483.908,611.683,1496.906Z" transform="translate(70.216 -683.655)" fill="#fff"/><path d="M288.361,1522.943l103.4.433a5.922,5.922,0,0,0,5.926-5.453c5.175-65.323-2.691-109.855-23.384-132.352-9.9-10.769-22.632-16.255-37.818-16.319-12.139-.051-22.548,4.6-30.928,13.813-32.434,35.645-23.455,130.521-23.061,134.549A5.912,5.912,0,0,0,288.361,1522.943Zm25.954-131.923c6.12-6.714,13.354-9.967,22.118-9.931,11.925.05,21.464,4.139,29.158,12.509,17.568,19.09,24.7,59.792,20.7,117.919l-92.431-.388C292.473,1490.877,289.435,1418.364,314.315,1391.02Z" transform="translate(-56.801 -696.908)" fill="#fff"/><path d="M776.606,1524.978l103.4.433a5.913,5.913,0,0,0,5.912-5.279c.429-4.026,10.208-98.823-21.927-134.739-8.3-9.284-18.672-14.02-30.811-14.071-15.192-.063-27.961,5.315-37.959,16-20.87,22.309-29.114,66.774-24.493,132.15A5.924,5.924,0,0,0,776.606,1524.978Zm27.261-129.556c7.765-8.305,17.337-12.313,29.262-12.263,8.764.038,15.97,3.352,22.035,10.116,24.649,27.552,21,100.038,19.445,120.278l-92.433-.388C778.675,1455,786.146,1414.352,803.867,1395.422Z" transform="translate(189.361 -695.865)" fill="#fff"/><path d="M877.277,1525.4l103.4.433a5.915,5.915,0,0,0,5.912-5.279c.427-4.026,10.2-98.823-21.934-134.739-8.3-9.284-18.671-14.02-30.811-14.071-15.184-.063-27.959,5.315-37.953,16-20.881,22.322-29.119,66.786-24.491,132.15A5.924,5.924,0,0,0,877.277,1525.4Zm27.255-129.556c7.764-8.305,17.335-12.313,29.262-12.264,8.762.038,15.969,3.351,22.034,10.116,24.65,27.552,21,100.038,19.451,120.276l-92.433-.387C879.333,1455.427,886.8,1414.787,904.533,1395.844Z" transform="translate(240.097 -695.652)" fill="#fff"/></g></g></g></svg>