<svg xmlns="http://www.w3.org/2000/svg" width="1501.001" height="681.376" viewBox="0 0 1501.001 681.376"><g transform="translate(-3517.5 -1153.124)"><path d="M0,660.423v-206H3V364.558l-2.934,0,.961-30.622H.066l6.914-214.3S39.468,285.7,137.384,278.32C165.424,276.208,194,258.9,223.013,235.8,291.2,140.1,359.646-15.516,435,1.251,510.224,17.989,569.678,117.845,653.932,161.26c34.492,3.156,73.89.811,122.073-11.084C935.3,110.852,1057.531,52.617,1148.574,98.8c53.534,27.152,143.528,173.323,188.083,218.792s71.955-140.246,158.517-154.6c0,0-.181,10.384-.429,26.052.142-.026.287-.051.429-.075,0,0-1.482,87.776-1.827,139.658.008.538.018,1.044.029,1.521H1500V454.442h0v205.98Z" transform="translate(3518 1153.577)" fill="#8f8371" stroke="rgba(0,0,0,0)" stroke-width="1"/><path d="M0,660.423v-206H3V333.935H.066l6.914-214.3S39.468,285.7,137.384,278.32,296.651-31.417,403.423-8.288,586.861,173.84,746.153,134.518s311.378-81.9,402.421-35.72c53.534,27.154,143.528,173.323,188.083,218.792s71.955-140.246,158.519-154.6c0,0-2.41,138.771-1.8,167.157H1500V454.442h0v205.98Z" transform="translate(3518 1173.577)" fill="#fff8dc" stroke="rgba(0,0,0,0)" stroke-width="1"/></g></svg>