<svg xmlns="http://www.w3.org/2000/svg" width="1500.944" height="644.151" viewBox="0 0 1500.944 644.151"><g transform="translate(-3559.557 -1627.349)"><path d="M22.842,684.176v-157.2l-2.934,0L26.822,142s32.489,298.315,130.4,285.063S359.6,67.55,466.371,109.1s170.185,158.406,329.477,87.764,281.524-175.259,372.568-92.3c53.534,48.779,143.528,311.363,188.084,393.047s71.953-251.945,158.516-277.722c0,0-2.408,249.27-1.8,300.287h6.626v164Z" transform="translate(3540.158 1553.825)" fill="#8f8371" stroke="rgba(0,0,0,0)" stroke-width="1"/><path d="M22.842,684.176v-157.2l-2.934,0L26.822,142s32.489,298.315,130.4,285.063S359.6,67.55,466.371,109.1s170.185,158.406,329.477,87.764,281.524-175.259,372.568-92.3c53.534,48.779,143.528,311.363,188.084,393.047s71.953-251.945,158.516-277.722c0,0-2.408,249.27-1.8,300.287h6.626v164Z" transform="translate(3540.158 1586.825)" fill="#fff8dc" stroke="rgba(0,0,0,0)" stroke-width="1"/></g></svg>