<svg xmlns="http://www.w3.org/2000/svg" width="1500.951" height="443.377" viewBox="0 0 1500.951 443.377"><g transform="translate(-3559.549 -1557.608)"><path d="M2.934,339.659V252.151l-2.934,0,6.914-214.3s32.489,166.06,130.4,158.683,202.373-200.127,309.145-177S616.648,107.716,775.94,68.393s281.525-97.559,372.568-51.38c53.534,27.153,143.528,173.323,188.084,218.793s71.953-140.247,158.516-154.6c0,0-2.408,138.758-1.8,167.157h6.626v91.292Z" transform="translate(3560.066 1627.826)" fill="#8f8371" stroke="rgba(0,0,0,0)" stroke-width="1"/><path d="M2.934,339.665V252.156l-2.934,0,6.914-214.3S39.4,203.917,137.318,196.54,328.163-124.67,434.935-101.541,616.648,107.719,775.94,68.4C898.6,38.117,999.277-3.376,1080.595.219c24.383,1.078,46.973,6.176,67.912,16.8,53.535,27.154,143.529,173.325,188.085,218.8s71.953-140.249,158.516-154.6c0,0-2.408,138.759-1.8,167.158h6.626v91.293Z" transform="translate(3560.066 1660.821)" fill="#fff8dc" stroke="rgba(0,0,0,0)" stroke-width="1"/></g></svg>