<svg xmlns="http://www.w3.org/2000/svg" width="1541.237" height="869.008" viewBox="0 0 1541.237 869.008"><g transform="translate(32.943 -92.555)"><g transform="translate(1129.294 -136.848)"><path d="M1467,799.411l-41.5-552.852c-75.951,37.861-258.821-226.286-329.366-293.118C1040.44-98.54,973.607,202.207,906.775,202.207S801.218,312.623,760.466,324.822c-130.613,39.1-350.4-91.037-373.5-78.263S108.334,545.084,15.674,536.37s-89.9-203.28-89.9-203.28l28.982,466.321Z" transform="translate(-1088 282)" fill="#8f8371"/></g><g transform="translate(1129.294 -119.848)"><path d="M1467,799.411l-41.5-552.852c-75.951,37.861-258.821-226.286-329.366-293.118C1040.44-98.54,973.607,202.207,906.775,202.207S801.218,312.623,760.466,324.822c-130.613,39.1-350.4-91.037-373.5-78.263S108.334,545.084,15.674,536.37s-89.9-203.28-89.9-203.28l28.982,466.321Z" transform="translate(-1088 282)" fill="#22192e"/></g></g></svg>