<?xml version="1.0" encoding="iso-8859-1"?>
<!-- Generator: Adobe Illustrator 19.0.0, SVG Export Plug-In . SVG Version: 6.00 Build 0)  -->
<svg version="1.1" xmlns="http://www.w3.org/2000/svg" xmlns:xlink="http://www.w3.org/1999/xlink" x="0px" y="0px"
	 viewBox="0 0 512 512" style="enable-background:new 0 0 512 512;" xml:space="preserve" id="music">
<g>
	<g>
		<g>
			<path d="M245.333,256C215.917,256,192,279.927,192,309.333s23.917,53.333,53.333,53.333c29.417,0,53.333-23.927,53.333-53.333
				S274.75,256,245.333,256z M245.333,341.333c-17.646,0-32-14.354-32-32c0-17.646,14.354-32,32-32c17.646,0,32,14.354,32,32
				C277.333,326.979,262.979,341.333,245.333,341.333z"/>
			<path d="M508.875,77.792l-32-32c-3.417-3.406-8.688-4.125-12.833-1.719L389.375,86.74C386.042,88.635,384,92.177,384,96v16.917
				l-71.479,71.469c-15.75-8.979-31.479-13.698-45.854-13.719c-50.229,0-62.646,30.875-71.708,53.427
				C186.521,245.052,181.146,255.99,160,256c-20.284,0-37.977,3.121-53.333,8.674V145.82l68.568-60.949
				c21.354-2.314,38.099-20.238,38.099-42.204C213.333,19.135,194.188,0,170.667,0c-21.953,0-39.882,16.732-42.203,38.086
				l-83.109,93.497c-3.75,4.219-3.563,10.635,0.438,14.625l3.004,3.004C32.802,166.297,0,210.695,0,288v213.333
				C0,507.229,4.771,512,10.667,512s10.667-4.771,10.667-10.667V288c0-70.247,29.109-109.302,42.564-123.686l3.228,3.228
				c2.083,2.073,4.813,3.125,7.542,3.125c2.521,0,5.063-0.896,7.083-2.698l3.583-3.185v110.525
				c-27.464,17.827-42.667,47.406-42.667,87.358c0,33.281,17.197,67.99,42.667,95.62v32.38H74.667
				c-5.896,0-10.667,4.771-10.667,10.667C64,507.229,68.771,512,74.667,512h42.667c5.896,0,10.667-4.771,10.667-10.667
				c0-5.896-4.771-10.667-10.667-10.667h-10.667v-12.504C132.373,498.665,162.734,512,192,512
				c67.792,0,106.667-42.771,106.667-117.333c0-21.146,10.938-26.531,31.896-34.958c22.542-9.063,53.417-21.479,53.417-71.708
				c0-14.375-4.708-30.094-13.708-45.865l71.479-71.469h16.917c3.833,0,7.354-2.052,9.271-5.375l42.667-74.667
				C512.979,86.448,512.271,81.188,508.875,77.792z M170.667,21.333c11.771,0,21.333,9.573,21.333,21.333
				C192,54.427,182.438,64,170.667,64s-21.333-9.573-21.333-21.333C149.333,30.906,158.896,21.333,170.667,21.333z M75.104,145.344
				l-7.125-7.104l65.973-74.21c3.721,6.368,8.99,11.635,15.358,15.355L75.104,145.344z M452.479,149.333h-15.146
				c-2.833,0-5.542,1.125-7.542,3.125L349.25,232.99c-3.583,3.573-4.146,9.156-1.375,13.385
				c9.667,14.76,14.771,29.156,14.771,41.625c0,35.813-17.667,42.917-40.042,51.917c-20.167,8.115-45.271,18.208-45.271,54.75
				c0,43.792-14.813,96-85.333,96c-58.625,0-128-69.385-128-128c0-70.521,52.208-85.344,96-85.354
				c36.542,0,46.646-25.094,54.75-45.271c8.979-22.354,16.083-40.021,51.896-40.021h0.021c12.479,0,26.854,5.104,41.625,14.771
				c4.167,2.76,9.792,2.177,13.375-1.385l80.542-80.531c2-2,3.125-4.708,3.125-7.542v-15.146l62.208-35.552l20.479,20.479
				L452.479,149.333z"/>
			<path d="M146.208,365.792c-4.167-4.167-10.917-4.167-15.083,0c-4.167,4.167-4.167,10.917,0,15.083l42.667,42.667
				c2.083,2.083,4.813,3.125,7.542,3.125c2.729,0,5.458-1.042,7.542-3.125c4.167-4.167,4.167-10.917,0-15.083L146.208,365.792z"/>
		</g>
	</g>
</g>
</svg>
