<?xml version="1.0" encoding="iso-8859-1"?>
<!-- Generator: Adobe Illustrator 19.0.0, SVG Export Plug-In . SVG Version: 6.00 Build 0)  -->
<svg version="1.1" id="quiz" xmlns="http://www.w3.org/2000/svg" xmlns:xlink="http://www.w3.org/1999/xlink" x="0px" y="0px"
	 viewBox="0 0 480 480" style="enable-background:new 0 0 480 480;" xml:space="preserve">
<g>
	<g>
		<path d="M133.285,264c-22.091,0-40,17.909-40,40c0,22.091,17.909,40,40,40c22.08-0.026,39.974-17.92,40-40
			C173.285,281.909,155.376,264,133.285,264z M133.285,328c-13.255,0-24-10.745-24-24s10.745-24,24-24s24,10.745,24,24
			S146.54,328,133.285,328z"/>
	</g>
</g>
<g>
	<g>
		<path d="M259.149,359.008l-39.128-55.912c-7.166-10.209-21.251-12.676-31.46-5.51c-10.025,7.036-12.614,20.781-5.836,30.982
			L198.341,352H68.229l15.616-23.432c6.902-10.389,4.075-24.406-6.314-31.308c-10.201-6.777-23.946-4.188-30.982,5.836
			L7.421,359.008c-8.249,11.791-5.377,28.037,6.414,36.286c4.377,3.062,9.589,4.705,14.93,4.706h56.52v72c0,4.418,3.582,8,8,8h80
			c4.418,0,8-3.582,8-8v-72h56.52c14.39-0.003,26.053-11.672,26.05-26.062C263.854,368.596,262.211,363.385,259.149,359.008z
			 M243.616,382.181c-1.703,1.192-3.733,1.828-5.811,1.819h-64.52c-4.418,0-8,3.582-8,8v72h-64v-72c0-4.418-3.582-8-8-8h-64.52
			c-5.554,0.001-10.057-4.5-10.059-10.053c-0.001-2.065,0.634-4.079,1.819-5.771l39.16-55.912c2.052-3.002,6.15-3.772,9.152-1.72
			c3.002,2.052,3.772,6.15,1.72,9.152L46.629,355.56c-2.452,3.675-1.461,8.643,2.215,11.095c1.315,0.877,2.86,1.345,4.441,1.345h160
			c4.418,0.001,8.001-3.581,8.001-7.999c0-1.581-0.468-3.126-1.345-4.441l-23.904-35.864c-2.052-3.002-1.282-7.1,1.72-9.152
			c3.002-2.052,7.1-1.282,9.152,1.72l39.176,55.912C249.271,372.725,248.165,378.996,243.616,382.181z"/>
	</g>
</g>
<g>
	<g>
		<path d="M149.285,120h-24c-13.255,0-24,10.745-24,24h16c0-4.418,3.582-8,8-8h24c4.418,0,8,3.582,8,8s-3.582,8-8,8
			c-13.255,0-24,10.745-24,24h16c0-4.418,3.582-8,8-8c13.255,0,24-10.745,24-24S162.54,120,149.285,120z"/>
	</g>
</g>
<g>
	<g>
		<rect x="125.285" y="184" width="16" height="16"/>
	</g>
</g>
<g>
	<g>
		<path d="M133.285,88c-48.52,0-88,32.296-88,72c0,32.352,26.12,60.448,63.896,69.192l17.704,23.608
			c2.651,3.535,7.665,4.251,11.2,1.6c0.606-0.455,1.145-0.994,1.6-1.6l17.704-23.608c37.776-8.744,63.896-36.84,63.896-69.192
			C221.285,120.296,181.805,88,133.285,88z M151.197,214.168c-1.918,0.392-3.626,1.474-4.8,3.04l-13.112,17.456l-13.096-17.456
			c-1.174-1.567-2.882-2.648-4.8-3.04C83.525,207.776,61.285,185.504,61.285,160c0-30.872,32.296-56,72-56s72,25.128,72,56
			C205.285,185.504,183.045,207.776,151.197,214.168z"/>
	</g>
</g>
<g>
	<g>
		<path d="M365.285,160c-22.08,0.026-39.974,17.92-40,40c0,22.091,17.909,40,40,40c22.091,0,40-17.909,40-40
			S387.376,160,365.285,160z M365.285,224c-13.255,0-24-10.745-24-24s10.745-24,24-24s24,10.745,24,24S378.54,224,365.285,224z"/>
	</g>
</g>
<g>
	<g>
		<path d="M413.285,0h-96c-22.08,0.026-39.974,17.92-40,40v48c0.026,22.08,17.92,39.974,40,40h20.688l21.656,21.656
			c3.124,3.123,8.188,3.123,11.312,0L392.597,128h20.688c22.08-0.026,39.974-17.92,40-40V40C453.259,17.92,435.365,0.026,413.285,0z
			 M437.285,88c0,13.255-10.745,24-24,24h-24c-2.122,0-4.156,0.844-5.656,2.344l-18.344,18.344l-18.344-18.344
			c-1.5-1.5-3.534-2.344-5.656-2.344h-24c-13.255,0-24-10.745-24-24V40c0-13.255,10.745-24,24-24h96c13.255,0,24,10.745,24,24V88z"
			/>
	</g>
</g>
<g>
	<g>
		<path d="M457.285,216.32c-13.069-2.209-25.455,6.595-27.664,19.664c-0.224,1.327-0.337,2.67-0.336,4.016v8h-128v-39.144
			c0.15-11.941-8.274-22.276-20-24.536c-13.069-2.209-25.455,6.595-27.664,19.664c-0.224,1.327-0.337,2.67-0.336,4.016v40
			c0.026,26.499,21.501,47.974,48,48h16v39.296l-19,107.68c-2.945,17.176,8.592,33.487,25.768,36.432
			c17.176,2.945,33.487-8.592,36.432-25.768l4.8-28.968l4.8,28.976c2.947,17.167,19.253,28.695,36.42,25.748
			c17.167-2.947,28.695-19.253,25.748-36.42l-18.968-107.68V296h16c26.499-0.026,47.974-21.501,48-48v-7.144
			C477.435,228.915,469.011,218.58,457.285,216.32z M461.285,248c0,17.673-14.327,32-32,32h-24c-4.418,0-8,3.582-8,8v48
			c-0.001,0.467,0.041,0.933,0.128,1.392l19.12,108.368c1.497,8.453-4.143,16.519-12.596,18.016
			c-8.453,1.497-16.519-4.143-18.016-12.596c-0.01-0.054-0.019-0.109-0.028-0.164l-12.72-76.328
			c-0.737-4.356-4.866-7.291-9.222-6.554c-3.357,0.568-5.986,3.197-6.554,6.554l-12.72,76.32
			c-1.358,8.477-9.331,14.247-17.807,12.889c-8.477-1.358-14.247-9.331-12.889-17.807c0.018-0.11,0.036-0.22,0.056-0.33
			l19.12-108.368c0.087-0.459,0.13-0.925,0.128-1.392v-48c0-4.418-3.582-8-8-8h-24c-17.673,0-32-14.327-32-32v-40
			c-0.002-4.418,3.578-8.002,7.997-8.003c0.471,0,0.94,0.041,1.403,0.123c3.994,0.977,6.752,4.627,6.6,8.736V248
			c0,8.837,7.163,16,16,16h128c8.837,0,16-7.163,16-16v-8c-0.001-2.351,1.032-4.583,2.824-6.104c1.814-1.55,4.228-2.203,6.576-1.776
			c3.994,0.977,6.752,4.627,6.6,8.736V248z"/>
	</g>
</g>
<g>
	<g>
		<path d="M403.137,34.344c-3.07-3.178-8.134-3.266-11.312-0.196c-0.067,0.064-0.132,0.13-0.196,0.196l-42.344,42.344
			l-10.344-10.344c-3.178-3.07-8.242-2.982-11.312,0.196c-2.995,3.1-2.995,8.016,0,11.116l16,16c3.124,3.123,8.188,3.123,11.312,0
			l48-48C406.119,42.586,406.207,37.522,403.137,34.344z"/>
	</g>
</g>

</svg>
